<svg width="219" height="69" viewBox="0 0 219 69" fill="none" xmlns="http://www.w3.org/2000/svg">
<g clip-path="url(#clip0_229_870)">
<path d="M126.8 60.13L132.41 62.17L132.44 57.96L126.8 60.13Z" fill="#343432"/>
<path d="M132.41 62.17L144.11 66.42L146.32 62.77L144.14 59.94L146.23 57.22L144.03 53.48L132.44 57.96L132.41 62.17Z" fill="#EBD49A"/>
<path d="M144.11 66.42L202.3 65.83L202.25 62.31L146.32 62.77C146.32 62.77 144.6 63.57 144.22 64.28C144.001 64.9723 143.963 65.709 144.11 66.42V66.42Z" fill="#F7D53C"/>
<path d="M146.32 62.77L202.25 62.31L202.15 56.76L146.23 57.22C146.23 57.22 144.16 58.63 144.14 59.94C144.12 61.25 146.32 62.77 146.32 62.77Z" fill="#F7D53C"/>
<path d="M146.23 57.22L202.15 56.76L202.08 52.87L144 53.48C143.893 53.8633 143.867 54.2643 143.922 54.6583C143.977 55.0523 144.112 55.4307 144.32 55.77C144.834 56.3966 145.488 56.8934 146.23 57.22V57.22Z" fill="#F7D53C"/>
<path d="M202.08 52.87L207.07 52.83L207.28 65.78L202.3 65.83L202.08 52.87Z" fill="#A2A1A0"/>
<path d="M207.07 52.83H210.67C211.32 52.9841 211.93 53.2737 212.46 53.68C212.772 54.0431 213.022 54.4553 213.2 54.9L213.3 63.9C213.3 63.9 213.04 65.08 212.39 65.31C211.81 65.498 211.219 65.6483 210.62 65.76H207.28L207.07 52.83Z" fill="#E7AED0"/>
<path d="M146.23 57.22L202.15 56.76" stroke="#1D1D1B" stroke-width="0.25" stroke-miterlimit="10"/>
<path d="M202.25 62.31L146.32 62.77" stroke="#1D1D1B" stroke-width="0.25" stroke-miterlimit="10"/>
<path d="M2 16.89L39.87 6.26001C39.8459 7.22872 39.923 8.1973 40.1 9.15001C40.37 10.15 41.1 12.15 41.1 12.15L2.51 17.4C2.51 17.4 1.55 17.31 2 16.89Z" fill="#3D3D3B"/>
<path d="M52.42 8.21L42.09 11.77C41.6588 9.89857 41.325 8.00603 41.09 6.1C41.23 5.69 51.9 5 51.9 5C51.9 5 51.8 7.77 52.42 8.21Z" fill="#727070"/>
<path d="M68.74 9.93001C68.74 9.93001 59 -1.90999 55 2.00001C51 5.91001 53.13 8.76001 55.8 10C58.47 11.24 60.72 8.90001 61.73 8.57001C62.74 8.24001 66.74 8.00001 68.74 9.93001Z" fill="#1E1E1C"/>
<path d="M67.24 8.60001C67.24 8.60001 72.14 14.08 71.29 17.22C71.1755 17.9997 70.888 18.7439 70.4485 19.3979C70.0089 20.052 69.4286 20.5994 68.75 21C66.9 22.12 66.49 23.6 67.1 25.19C67.71 26.78 69.87 28 71.33 27.4C72.79 26.8 74.27 23.8 74.24 21.87C74.24 21.87 74.66 12.61 67.24 8.60001Z" fill="#110C13"/>
<path d="M126.8 60.12H0.880005" stroke="#1D1D1B" stroke-width="0.25" stroke-miterlimit="10"/>
<path d="M7.45523 44.2375L17.7557 44.0214C18.0078 44.0214 18.2359 44.1834 18.44 44.5076C18.6441 44.8197 18.8002 45.2159 18.9082 45.6961C19.0283 46.1643 19.0943 46.6745 19.1063 47.2268C19.1303 47.779 19.0823 48.2952 18.9622 48.7754C18.8542 49.2436 18.6741 49.6398 18.422 49.964C18.1699 50.2761 17.8337 50.4262 17.4136 50.4141C15.8169 50.3901 14.0941 50.3841 12.2453 50.3961C10.3965 50.4081 8.39164 50.4141 6.2307 50.4141C5.31831 50.4141 4.55598 50.3661 3.94371 50.2701C3.33145 50.1861 2.83323 50.048 2.44906 49.8559C2.0769 49.6638 1.79478 49.4117 1.6027 49.0996C1.42262 48.7754 1.29656 48.3853 1.22453 47.9291C1.1525 47.4729 1.11648 46.9446 1.11648 46.3444C1.11648 45.7321 1.11648 45.0358 1.11648 44.2555C1.11648 43.235 1.11648 42.1246 1.11648 40.924C1.11648 39.7115 1.11648 38.463 1.11648 37.1784C1.12849 35.8938 1.13449 34.5973 1.13449 33.2887C1.13449 31.9802 1.13449 30.7076 1.13449 29.4711C1.1465 28.2225 1.1525 27.046 1.1525 25.9415C1.1525 24.825 1.1525 23.8226 1.1525 22.9342C1.16451 22.0458 1.17051 21.2955 1.17051 20.6832C1.18251 20.071 1.19452 19.6508 1.20652 19.4227C1.21853 19.1946 1.3746 18.9965 1.67473 18.8284C1.97486 18.6604 2.34702 18.5343 2.79121 18.4503C3.24741 18.3542 3.73362 18.3002 4.24984 18.2882C4.77807 18.2642 5.26428 18.2822 5.70848 18.3422C6.16467 18.4023 6.54284 18.5103 6.84297 18.6664C7.1431 18.8224 7.29316 19.0205 7.29316 19.2606L7.45523 44.2375ZM39.4731 42.1125C39.6412 41.9205 39.8993 41.8424 40.2475 41.8784C40.5956 41.9145 40.9678 42.0285 41.3639 42.2206C41.7721 42.4007 42.1743 42.6408 42.5705 42.9409C42.9786 43.229 43.3208 43.5352 43.5969 43.8593C43.873 44.1834 44.0591 44.5016 44.1552 44.8137C44.2512 45.1259 44.1972 45.396 43.9931 45.6241C43.2007 46.4884 42.3424 47.2388 41.418 47.875C40.5056 48.4993 39.5572 49.0095 38.5727 49.4057C37.6003 49.8019 36.6039 50.084 35.5834 50.2521C34.575 50.4202 33.5786 50.4742 32.5941 50.4141C31.1055 50.3421 29.6829 50.018 28.3263 49.4417C26.9697 48.8655 25.7812 48.0611 24.7607 47.0287C23.7403 45.9842 22.9299 44.7177 22.3297 43.229C21.7414 41.7284 21.4653 40.0176 21.5013 38.0968C21.5133 37.0764 21.6394 36.0619 21.8795 35.0535C22.1196 34.033 22.4677 33.0666 22.9239 32.1542C23.3921 31.2298 23.9624 30.3715 24.6347 29.5791C25.319 28.7748 26.1113 28.0785 27.0117 27.4902C27.9121 26.9019 28.9205 26.4397 30.037 26.1036C31.1655 25.7555 32.4021 25.5694 33.7466 25.5454C35.4634 25.5213 36.952 25.8095 38.2126 26.4097C39.4851 27.01 40.5536 27.8143 41.418 28.8228C42.2944 29.8312 42.9726 30.9837 43.4529 32.2803C43.9451 33.5768 44.2632 34.9154 44.4073 36.296C44.4553 36.7522 44.4493 37.2204 44.3893 37.7006C44.3412 38.1808 44.2332 38.625 44.0651 39.0332C43.9091 39.4294 43.693 39.7595 43.4168 40.0236C43.1527 40.2758 42.8286 40.4078 42.4444 40.4198C41.9282 40.4318 41.3039 40.4438 40.5716 40.4558C39.8513 40.4558 39.0649 40.4558 38.2126 40.4558C37.3602 40.4438 36.4598 40.4378 35.5114 40.4378C34.575 40.4258 33.6326 40.4138 32.6842 40.4018C31.7478 40.3898 30.8234 40.3838 29.911 40.3838C28.9986 40.3718 28.1522 40.3598 27.3719 40.3478C27.564 41.1401 27.8521 41.8364 28.2363 42.4367C28.6204 43.0249 29.0646 43.5232 29.5688 43.9313C30.073 44.3395 30.6313 44.6456 31.2436 44.8497C31.8558 45.0538 32.4981 45.1619 33.1704 45.1739C34.2389 45.1859 35.3193 44.9398 36.4118 44.4356C37.5163 43.9313 38.5367 43.157 39.4731 42.1125ZM32.9543 31.4879C31.9339 31.536 31.0215 31.8181 30.2171 32.3343C29.4128 32.8385 28.7525 33.4868 28.2363 34.2791L37.8884 34.2431C37.7084 33.835 37.4803 33.4568 37.2041 33.1086C36.94 32.7485 36.6099 32.4484 36.2137 32.2083C35.8175 31.9561 35.3493 31.7701 34.8091 31.65C34.2809 31.518 33.6626 31.4639 32.9543 31.4879ZM50.818 26.3377C50.818 25.4733 50.818 24.639 50.818 23.8346C50.8301 23.0303 50.8361 22.304 50.8361 21.6557C50.8481 20.9954 50.8541 20.4371 50.8541 19.9809C50.8661 19.5247 50.8721 19.2066 50.8721 19.0265C50.8721 18.7984 51.0221 18.6063 51.3223 18.4503C51.6344 18.2822 52.0126 18.1502 52.4568 18.0541C52.913 17.9581 53.3992 17.904 53.9154 17.892C54.4436 17.868 54.9298 17.886 55.374 17.9461C55.8302 18.0061 56.2084 18.1141 56.5085 18.2702C56.8086 18.4263 56.9587 18.6244 56.9587 18.8645L56.9947 26.3197L60.6863 26.3017C60.9384 26.3017 61.1665 26.4578 61.3706 26.7699C61.5747 27.07 61.7308 27.4542 61.8388 27.9224C61.9589 28.3906 62.0249 28.9008 62.0369 29.4531C62.0609 29.9933 62.0129 30.4975 61.8929 30.9657C61.7848 31.4339 61.6047 31.8241 61.3526 32.1362C61.1005 32.4363 60.7644 32.5864 60.3442 32.5864L57.0488 32.5684L57.1568 49.3697C57.1568 49.6218 57.0007 49.8499 56.6886 50.054C56.3765 50.2581 55.9803 50.4141 55.5001 50.5222C55.0199 50.6422 54.5036 50.7083 53.9514 50.7203C53.3992 50.7443 52.8829 50.6963 52.4027 50.5762C51.9345 50.4682 51.5384 50.2881 51.2142 50.036C50.9021 49.7839 50.752 49.4477 50.764 49.0275C50.764 48.6674 50.764 48.1692 50.764 47.5329C50.776 46.8846 50.782 46.1403 50.782 45.2999C50.782 44.4596 50.782 43.5412 50.782 42.5447C50.794 41.5363 50.8 40.4858 50.8 39.3934C50.8 38.2889 50.8 37.1604 50.8 36.0079C50.8 34.8434 50.8 33.6849 50.8 32.5324L47.1625 32.4964C46.9344 32.4964 46.7363 32.3463 46.5682 32.0462C46.4121 31.734 46.2861 31.3559 46.19 30.9117C46.106 30.4555 46.058 29.9633 46.046 29.435C46.034 28.8948 46.064 28.4026 46.136 27.9584C46.208 27.5022 46.3161 27.124 46.4602 26.8239C46.6162 26.5118 46.8203 26.3557 47.0724 26.3557L50.818 26.3377ZM95.4774 44.2555C95.4774 45.372 95.2733 46.3384 94.8652 47.1547C94.469 47.9591 93.9287 48.6254 93.2445 49.1536C92.5722 49.6818 91.7858 50.078 90.8854 50.3421C89.997 50.6062 89.0546 50.7503 88.0582 50.7743C87.0738 50.8103 86.0653 50.7323 85.0329 50.5402C84.0004 50.3481 83.01 50.06 82.0616 49.6758C81.1252 49.2797 80.2548 48.7994 79.4505 48.2352C78.6581 47.659 77.9978 47.0107 77.4696 46.2904C77.3135 46.0863 77.2655 45.8162 77.3255 45.48C77.3976 45.1439 77.5296 44.7897 77.7217 44.4175C77.9258 44.0334 78.1719 43.6612 78.46 43.3011C78.7482 42.9409 79.0423 42.6348 79.3424 42.3827C79.6546 42.1306 79.9427 41.9565 80.2068 41.8604C80.4829 41.7644 80.705 41.8004 80.8731 41.9685C81.2813 42.3887 81.7435 42.7788 82.2597 43.139C82.7879 43.4871 83.3221 43.7933 83.8624 44.0574C84.4026 44.3095 84.9368 44.5016 85.4651 44.6336C86.0053 44.7657 86.4975 44.8197 86.9417 44.7957C87.3859 44.7717 87.7641 44.6577 88.0762 44.4536C88.3883 44.2495 88.6044 43.9373 88.7245 43.5172C88.8205 43.145 88.6825 42.7668 88.3103 42.3827C87.9381 41.9865 87.4219 41.5723 86.7616 41.1401C86.1014 40.6959 85.351 40.2277 84.5107 39.7355C83.6703 39.2313 82.8359 38.6971 82.0076 38.1328C81.1912 37.5686 80.4229 36.9623 79.7026 36.314C78.9823 35.6658 78.418 34.9634 78.0098 34.2071C77.6137 33.4748 77.3976 32.7245 77.3616 31.9561C77.3376 31.1878 77.4576 30.4495 77.7217 29.7412C77.9978 29.0209 78.394 28.3546 78.9102 27.7423C79.4385 27.118 80.0567 26.5838 80.765 26.1396C81.4853 25.6954 82.2717 25.3713 83.1241 25.1672C83.9764 24.9511 84.8648 24.8851 85.7892 24.9691C86.6536 25.0531 87.53 25.2152 88.4184 25.4553C89.3067 25.6954 90.1471 26.0076 90.9395 26.3917C91.7438 26.7759 92.4761 27.2321 93.1364 27.7603C93.8087 28.2885 94.3609 28.8768 94.7931 29.5251C94.9612 29.7892 95.0152 30.0953 94.9552 30.4435C94.8952 30.7796 94.7631 31.1278 94.559 31.4879C94.3669 31.8361 94.1148 32.1782 93.8027 32.5144C93.5026 32.8385 93.1964 33.1146 92.8843 33.3427C92.5722 33.5708 92.272 33.7269 91.9839 33.8109C91.6958 33.895 91.4677 33.871 91.2996 33.7389C90.6993 33.2707 90.0511 32.8205 89.3548 32.3883C88.6585 31.9561 87.9922 31.62 87.3559 31.3799C86.7196 31.1398 86.1434 31.0257 85.6271 31.0377C85.1229 31.0377 84.7628 31.2418 84.5467 31.65C84.4266 31.8781 84.4026 32.1062 84.4746 32.3343C84.5587 32.5504 84.6967 32.7665 84.8888 32.9826C85.0929 33.1867 85.333 33.3908 85.6091 33.5949C85.8973 33.7869 86.1914 33.967 86.4915 34.1351C86.8037 34.3032 87.0978 34.4592 87.3739 34.6033C87.662 34.7353 87.9021 34.8434 88.0942 34.9274C89.1027 35.3236 90.0511 35.8278 90.9395 36.4401C91.8398 37.0403 92.6262 37.7366 93.2985 38.529C93.9708 39.3213 94.499 40.1977 94.8832 41.1581C95.2793 42.1185 95.4774 43.151 95.4774 44.2555ZM133.636 33.847C133.672 35.3116 133.54 36.7402 133.24 38.1328C132.94 39.5254 132.471 40.84 131.835 42.0765C131.199 43.3011 130.401 44.4296 129.44 45.462C128.48 46.4824 127.357 47.3648 126.073 48.1091C124.788 48.8415 123.348 49.4057 121.751 49.8019C120.154 50.1981 118.407 50.3841 116.511 50.3601C115.706 50.3481 114.974 50.2941 114.314 50.1981C113.665 50.102 113.107 49.9399 112.639 49.7118C112.171 49.4717 111.811 49.1536 111.558 48.7574C111.306 48.3493 111.18 47.833 111.18 47.2088C111.18 46.3204 111.18 45.3059 111.18 44.1654C111.18 43.0129 111.18 41.7944 111.18 40.5099C111.192 39.2133 111.198 37.8807 111.198 36.5121C111.21 35.1315 111.216 33.7689 111.216 32.4243C111.228 31.0798 111.234 29.7772 111.234 28.5166C111.246 27.2441 111.252 26.0736 111.252 25.0051C111.264 23.9367 111.27 23.0003 111.27 22.1959C111.282 21.3796 111.288 20.7493 111.288 20.3051C111.288 20.029 111.384 19.7649 111.576 19.5127C111.78 19.2606 112.099 19.0445 112.531 18.8645C112.963 18.6724 113.515 18.5343 114.188 18.4503C114.872 18.3542 115.688 18.3302 116.637 18.3782C118.137 18.4623 119.59 18.6664 120.994 18.9905C122.399 19.3027 123.72 19.7468 124.956 20.3231C126.205 20.8993 127.345 21.6077 128.378 22.448C129.422 23.2764 130.323 24.2548 131.079 25.3833C131.847 26.4998 132.453 27.7603 132.898 29.1649C133.342 30.5695 133.588 32.1302 133.636 33.847ZM128.054 35.1435C128.078 33.6789 127.897 32.3343 127.513 31.1098C127.141 29.8732 126.523 28.7988 125.659 27.8864C124.806 26.962 123.684 26.2177 122.291 25.6534C120.91 25.0892 119.224 24.735 117.231 24.5909L117.357 44.9218C118.954 44.8137 120.406 44.4896 121.715 43.9493C123.023 43.3971 124.14 42.6828 125.064 41.8064C126.001 40.93 126.727 39.9276 127.243 38.7991C127.759 37.6586 128.03 36.4401 128.054 35.1435ZM142.586 27.9224C143.09 27.6103 143.678 27.3401 144.351 27.112C145.035 26.8839 145.755 26.7219 146.512 26.6258C147.28 26.5298 148.072 26.5118 148.889 26.5718C149.717 26.6198 150.527 26.7639 151.32 27.004C152.124 27.2321 152.892 27.5622 153.625 27.9944C154.369 28.4146 155.047 28.9548 155.66 29.6151C155.852 29.8312 155.942 30.1133 155.93 30.4615C155.93 30.8096 155.858 31.1758 155.714 31.56C155.569 31.9441 155.383 32.3283 155.155 32.7125C154.927 33.0966 154.681 33.4268 154.417 33.7029C154.153 33.967 153.895 34.1591 153.643 34.2791C153.403 34.3992 153.198 34.3872 153.03 34.2431C152.406 33.7269 151.74 33.3307 151.032 33.0546C150.335 32.7785 149.633 32.5924 148.925 32.4964C148.216 32.4003 147.526 32.3883 146.854 32.4604C146.193 32.5324 145.587 32.6705 145.035 32.8745C144.483 33.0666 144.002 33.3187 143.594 33.6309C143.198 33.931 142.916 34.2671 142.748 34.6393L142.946 49.5678C142.946 49.8199 142.79 50.048 142.478 50.2521C142.166 50.4562 141.77 50.6122 141.289 50.7203C140.809 50.8403 140.293 50.9064 139.741 50.9184C139.188 50.9424 138.672 50.8944 138.192 50.7743C137.724 50.6663 137.328 50.4862 137.003 50.2341C136.691 49.982 136.541 49.6458 136.553 49.2256C136.565 48.7454 136.571 48.0971 136.571 47.2808C136.571 46.4524 136.571 45.516 136.571 44.4716C136.571 43.4151 136.571 42.2926 136.571 41.1041C136.571 39.9036 136.571 38.6971 136.571 37.4845C136.571 36.26 136.571 35.0655 136.571 33.901C136.571 32.7245 136.565 31.644 136.553 30.6596C136.553 29.6631 136.553 28.7928 136.553 28.0484C136.553 27.3041 136.553 26.7519 136.553 26.3917C136.553 26.1636 136.703 25.9655 137.003 25.7975C137.304 25.6294 137.676 25.5033 138.12 25.4193C138.576 25.3233 139.068 25.2692 139.597 25.2572C140.125 25.2332 140.611 25.2512 141.055 25.3113C141.511 25.3713 141.89 25.4793 142.19 25.6354C142.49 25.7915 142.64 25.9896 142.64 26.2297L142.586 27.9224ZM179.988 49.2797C179.988 49.5318 179.832 49.7659 179.52 49.982C179.208 50.1981 178.812 50.3721 178.331 50.5042C177.851 50.6362 177.335 50.7203 176.783 50.7563C176.23 50.8043 175.714 50.7803 175.234 50.6843C174.766 50.5882 174.37 50.4202 174.046 50.18C173.733 49.9399 173.583 49.6098 173.595 49.1896V48.8475C172.107 49.8319 170.492 50.3361 168.751 50.3601C167.515 50.3721 166.386 50.2221 165.366 49.9099C164.345 49.5978 163.427 49.1656 162.611 48.6134C161.794 48.0491 161.08 47.3888 160.468 46.6325C159.867 45.8642 159.363 45.0358 158.955 44.1474C158.547 43.259 158.229 42.3286 158.001 41.3562C157.784 40.3838 157.658 39.4054 157.622 38.4209C157.586 37.3765 157.658 36.332 157.838 35.2876C158.031 34.2431 158.325 33.2467 158.721 32.2983C159.129 31.3499 159.645 30.4675 160.27 29.6511C160.906 28.8348 161.65 28.1265 162.503 27.5262C163.355 26.926 164.315 26.4578 165.384 26.1216C166.452 25.7855 167.629 25.6174 168.913 25.6174C169.85 25.6294 170.72 25.7374 171.524 25.9415C172.329 26.1336 173.079 26.4157 173.775 26.7879C173.775 26.6919 173.775 26.5958 173.775 26.4998C173.787 26.4037 173.793 26.3257 173.793 26.2657C173.793 26.0376 173.943 25.8455 174.244 25.6894C174.556 25.5334 174.934 25.4193 175.378 25.3473C175.834 25.2632 176.32 25.2212 176.837 25.2212C177.365 25.2212 177.851 25.2632 178.295 25.3473C178.752 25.4193 179.13 25.5394 179.43 25.7074C179.73 25.8635 179.88 26.0616 179.88 26.3017L179.988 49.2797ZM168.211 31.722C167.491 31.746 166.836 31.9261 166.248 32.2623C165.672 32.5864 165.18 33.0366 164.771 33.6129C164.363 34.1891 164.051 34.8674 163.835 35.6477C163.631 36.4281 163.547 37.2744 163.583 38.1868C163.595 38.607 163.643 39.0512 163.727 39.5194C163.823 39.9876 163.955 40.4498 164.123 40.906C164.303 41.3622 164.519 41.8004 164.771 42.2206C165.024 42.6288 165.318 42.9949 165.654 43.3191C166.002 43.6312 166.392 43.8833 166.824 44.0754C167.257 44.2675 167.737 44.3635 168.265 44.3635C169.141 44.3635 169.916 44.1654 170.588 43.7693C171.26 43.3731 171.825 42.8569 172.281 42.2206C172.737 41.5723 173.085 40.846 173.325 40.0416C173.565 39.2373 173.685 38.433 173.685 37.6286C173.685 36.8603 173.565 36.1159 173.325 35.3956C173.085 34.6633 172.731 34.021 172.263 33.4688C171.795 32.9046 171.218 32.4604 170.534 32.1362C169.862 31.8121 169.087 31.674 168.211 31.722ZM210.673 26.4458C210.781 26.2297 210.998 26.0856 211.322 26.0136C211.658 25.9295 212.042 25.8995 212.474 25.9235C212.906 25.9475 213.351 26.0196 213.807 26.1396C214.275 26.2597 214.695 26.4037 215.067 26.5718C215.439 26.7399 215.74 26.932 215.968 27.1481C216.196 27.3521 216.28 27.5622 216.22 27.7783C216.148 28.0665 216.022 28.5407 215.842 29.2009C215.662 29.8612 215.445 30.6536 215.193 31.578C214.953 32.4904 214.677 33.4988 214.365 34.6033C214.065 35.6958 213.747 36.8243 213.411 37.9888C213.086 39.1413 212.756 40.2938 212.42 41.4463C212.084 42.5988 211.76 43.6852 211.448 44.7057C211.136 45.7141 210.841 46.6265 210.565 47.4429C210.301 48.2592 210.073 48.9075 209.881 49.3877C209.809 49.5678 209.623 49.7178 209.323 49.8379C209.023 49.958 208.669 50.048 208.26 50.108C207.852 50.18 207.408 50.2161 206.928 50.2161C206.46 50.2281 206.015 50.2101 205.595 50.162C205.187 50.114 204.827 50.036 204.515 49.9279C204.203 49.8079 204.005 49.6638 203.92 49.4958C203.656 48.9915 203.344 48.3072 202.984 47.4429C202.636 46.5785 202.258 45.6181 201.85 44.5616C201.453 43.4931 201.039 42.3707 200.607 41.1941C200.187 40.0176 199.773 38.8531 199.364 37.7006C198.944 38.8531 198.518 40.0176 198.086 41.1941C197.666 42.3707 197.252 43.4931 196.843 44.5616C196.447 45.6181 196.075 46.5785 195.727 47.4429C195.379 48.3072 195.073 48.9915 194.809 49.4958C194.724 49.6638 194.526 49.8079 194.214 49.9279C193.902 50.036 193.536 50.114 193.116 50.162C192.708 50.2101 192.263 50.2281 191.783 50.2161C191.315 50.2161 190.877 50.18 190.469 50.108C190.06 50.048 189.706 49.958 189.406 49.8379C189.106 49.7178 188.92 49.5678 188.848 49.3877C188.656 48.9075 188.422 48.2592 188.146 47.4429C187.882 46.6265 187.593 45.7141 187.281 44.7057C186.969 43.6852 186.645 42.5988 186.309 41.4463C185.973 40.2938 185.637 39.1413 185.3 37.9888C184.976 36.8243 184.658 35.6958 184.346 34.6033C184.046 33.4988 183.77 32.4904 183.518 31.578C183.278 30.6536 183.067 29.8612 182.887 29.2009C182.707 28.5407 182.581 28.0665 182.509 27.7783C182.449 27.5622 182.533 27.3521 182.761 27.1481C182.989 26.932 183.29 26.7399 183.662 26.5718C184.034 26.4037 184.448 26.2597 184.904 26.1396C185.372 26.0196 185.823 25.9475 186.255 25.9235C186.687 25.8995 187.065 25.9295 187.389 26.0136C187.725 26.0856 187.948 26.2297 188.056 26.4458L191.747 42.0765L196.879 27.2921C196.939 27.124 197.096 26.986 197.348 26.8779C197.6 26.7699 197.9 26.6919 198.248 26.6438C198.596 26.5838 198.968 26.5538 199.364 26.5538C199.761 26.5538 200.133 26.5838 200.481 26.6438C200.829 26.6919 201.129 26.7699 201.381 26.8779C201.633 26.986 201.79 27.124 201.85 27.2921L207 42.0765L210.673 26.4458Z" fill="#1D1D1B"/>
</g>
<defs>
<clipPath id="clip0_229_870">
<rect width="218.74" height="68.3" fill="white"/>
</clipPath>
</defs>
</svg>
