<svg id="Calque_1" data-name="Calque 1" xmlns="http://www.w3.org/2000/svg" viewBox="0 0 218.74 68.3">
  <defs>
    <style>
      .cls-1 {
        fill: #343432;
      }

      .cls-2 {
        fill: #ebd49a;
      }

      .cls-3 {
        fill: #f7d53c;
      }

      .cls-4 {
        fill: #a2a1a0;
      }

      .cls-5 {
        fill: #e7aed0;
      }

      .cls-6 {
        fill: none;
        stroke: #1d1d1b;
        stroke-miterlimit: 10;
        stroke-width: 0.25px;
      }

      .cls-7 {
        fill: #3d3d3b;
      }

      .cls-8 {
        fill: #727070;
      }

      .cls-9 {
        fill: #1e1e1c;
      }

      .cls-10 {
        fill: #110c13;
      }

      .cls-11 {
        font-size: 36.88px;
        fill: #1d1d1b;
        font-family: KGRedHands, KG Red Hands;
      }

      .cls-12 {
        letter-spacing: -0.02em;
      }

      .cls-13 {
        letter-spacing: -0.02em;
      }
    </style>
  </defs>
  <g id="Logo">
    <g>
      <g id="Pinceau_et_Crayon" data-name="Pinceau et Crayon">
        <g id="Crayon">
          <polygon class="cls-1" points="126.8 60.13 132.41 62.17 132.44 57.96 126.8 60.13"/>
          <polygon class="cls-2" points="132.41 62.17 144.11 66.42 146.32 62.77 144.14 59.94 146.23 57.22 144.03 53.48 132.44 57.96 132.41 62.17"/>
          <path class="cls-3" d="M144.11,66.42l58.19-.59-.05-3.52-55.93.46s-1.72.8-2.1,1.51A4.25,4.25,0,0,0,144.11,66.42Z"/>
          <path class="cls-3" d="M146.32,62.77l55.93-.46-.1-5.55-55.92.46s-2.07,1.41-2.09,2.72S146.32,62.77,146.32,62.77Z"/>
          <path class="cls-3" d="M146.23,57.22l55.92-.46-.07-3.89L144,53.48a2.9,2.9,0,0,0,.32,2.29A5.16,5.16,0,0,0,146.23,57.22Z"/>
          <polygon class="cls-4" points="202.08 52.87 207.07 52.83 207.28 65.78 202.3 65.83 202.08 52.87"/>
          <path class="cls-5" d="M207.07,52.83l3.6,0a4.74,4.74,0,0,1,1.79.85,4.34,4.34,0,0,1,.74,1.22l.1,9s-.26,1.18-.91,1.41a14.13,14.13,0,0,1-1.77.45l-3.34,0Z"/>
          <line class="cls-6" x1="146.23" y1="57.22" x2="202.15" y2="56.76"/>
          <line class="cls-6" x1="202.25" y1="62.31" x2="146.32" y2="62.77"/>
        </g>
        <g id="Pinceau">
          <g id="Pinceau-2" data-name="Pinceau">
            <path id="Manche" class="cls-7" d="M2,16.89,39.87,6.26a13.93,13.93,0,0,0,.23,2.89c.27,1,1,3,1,3L2.51,17.4S1.55,17.31,2,16.89Z"/>
            <path id="Pointe" class="cls-8" d="M52.42,8.21,42.09,11.77a55.51,55.51,0,0,1-1-5.67C41.23,5.69,51.9,5,51.9,5S51.8,7.77,52.42,8.21Z"/>
            <path id="Plume" class="cls-9" d="M68.74,9.93S59-1.91,55,2s-1.87,6.76.8,8,4.92-1.1,5.93-1.43S66.74,8,68.74,9.93Z"/>
          </g>
          <path id="Apostrophe" class="cls-10" d="M67.24,8.6s4.9,5.48,4.05,8.62A5.28,5.28,0,0,1,68.75,21c-1.85,1.12-2.26,2.6-1.65,4.19S69.87,28,71.33,27.4s2.94-3.6,2.91-5.53C74.24,21.87,74.66,12.61,67.24,8.6Z"/>
        </g>
        <line id="Trait" class="cls-6" x1="126.8" y1="60.12" x2="0.88" y2="60.12"/>
      </g>
      <text class="cls-11" transform="translate(1.68 50.73)">L<tspan class="cls-12" x="20.17" y="0">e</tspan><tspan x="45" y="0">t s D</tspan><tspan class="cls-13" x="134.99" y="0">r</tspan><tspan x="156.11" y="0">aw</tspan></text>
    </g>
  </g>
</svg>
